<svg width="226" height="48" viewBox="0 0 226 48" fill="none" xmlns="http://www.w3.org/2000/svg">
<path d="M11.1928 2C16.2003 2 20.0867 3.17619 22.852 5.52857C25.6173 7.85619 27 11.0133 27 15C27 18.9867 25.6173 22.1562 22.852 24.5086C20.0867 26.8362 16.2003 28 11.1928 28H2V2H11.1928ZM10.8565 24.9543C14.8675 24.9543 17.9317 24.0505 20.0493 22.2429C22.1918 20.4352 23.2631 18.021 23.2631 15C23.2631 11.979 22.1918 9.56476 20.0493 7.75714C17.9317 5.94952 14.8675 5.04571 10.8565 5.04571H2V24.9543H10.8565Z" fill="white"/>
<path d="M48.3394 2H52V19.0899C52 22.0599 51.0116 24.2875 49.0349 25.7725C47.0826 27.2575 44.386 28 40.9451 28C37.4798 28 34.7831 27.2818 32.8552 25.8455C30.9517 24.4092 30 22.3886 30 19.7837V17.7388H33.4043V19.6742C33.4043 21.427 34.0754 22.7537 35.4176 23.6545C36.7842 24.5552 38.6023 25.0056 40.8719 25.0056C43.1658 25.0056 44.9839 24.5066 46.3261 23.5084C47.6683 22.486 48.3394 20.9401 48.3394 18.8708V2Z" fill="white"/>
<path d="M83.1659 28L79.8111 21.3143H62.0783L58.7235 28H55L68.235 2H73.765L87 28H83.1659ZM62.0783 21.3143H79.8111L70.9263 3.63429L62.0783 21.3143Z" fill="white"/>
<path d="M121.448 2H128L127.963 28H124.331V3.93143L111.565 28H106.398L93.6315 3.93143V28H90V2H96.5517L109.056 26.0314L121.448 2Z" fill="white"/>
<path d="M134.509 19.7762C134.632 21.4761 135.58 22.8287 137.353 23.8343C139.15 24.8158 141.662 25.3066 144.888 25.3066C147.596 25.3066 149.837 24.9715 151.61 24.3011C153.408 23.6308 154.306 22.5893 154.306 21.1768C154.306 20.2431 153.851 19.465 152.94 18.8425C152.053 18.1961 150.601 17.6575 148.581 17.2265L140.16 15.3591C134.915 14.2339 132.293 12.0433 132.293 8.78729C132.293 6.53683 133.389 4.84899 135.58 3.72376C137.796 2.57459 140.616 2 144.038 2C147.732 2 150.736 2.64641 153.051 3.93922C155.365 5.23204 156.658 7.03959 156.929 9.36188L153.457 9.50552C153.285 8.093 152.349 6.94383 150.65 6.05801C148.951 5.14825 146.71 4.69337 143.927 4.69337C141.564 4.69337 139.643 5.04052 138.166 5.73481C136.713 6.40516 135.986 7.3628 135.986 8.60774C135.986 10.4751 137.833 11.8039 141.527 12.5939L149.616 14.2818C152.497 14.8803 154.614 15.7063 155.969 16.7597C157.323 17.7891 158 19.1777 158 20.9254C158 23.2716 156.843 25.0433 154.528 26.2403C152.213 27.4134 149 28 144.888 28C140.554 28 137.205 27.3057 134.841 25.9171C132.502 24.5285 131.222 22.5175 131 19.884L134.509 19.7762Z" fill="white"/>
<path d="M185.252 2H189V28H185.252V16.3H164.748V28H161V2H164.748V13.2543H185.252V2Z" fill="white"/>
<path d="M192 28V2H196V28H192Z" fill="white"/>
<path d="M208.193 2C213.2 2 217.087 3.17619 219.852 5.52857C222.617 7.85619 224 11.0133 224 15C224 18.9867 222.617 22.1562 219.852 24.5086C217.087 26.8362 213.2 28 208.193 28H199V2H208.193ZM207.857 24.9543C211.867 24.9543 214.932 24.0505 217.049 22.2429C219.192 20.4352 220.263 18.021 220.263 15C220.263 11.979 219.192 9.56476 217.049 7.75714C214.932 5.94952 211.867 5.04571 207.857 5.04571H199V24.9543H207.857Z" fill="white"/>
<path d="M170 46H167.398L160.577 39.7H159V38.16H160.557L167.043 32H169.468L162.134 38.8L170 46Z" fill="white"/>
<path d="M184.992 32H187V46H184.992V39.7H174.008V46H172V32H174.008V38.06H184.992V32Z" fill="white"/>
<path d="M204.843 46L202.956 42.4H192.982L191.094 46H189L196.445 32H199.555L207 46H204.843ZM192.982 42.4H202.956L197.959 32.88L192.982 42.4Z" fill="white"/>
<path d="M222.086 32H224V46H220.605L210.914 33.04V46H209V32H212.395L222.086 44.96V32Z" fill="white"/>
</svg>
