<svg width="202" height="50" viewBox="0 0 202 50" fill="none" xmlns="http://www.w3.org/2000/svg">
<path d="M173.456 8.88349H175.058V42.8155L200.35 8.88349H201.952V45.2913H200.35V11.2621L174.961 45.2913H173.456V8.88349ZM187.874 5.63107C185.706 5.63107 184.007 5.14563 182.777 4.17475C181.579 3.20388 180.932 1.8123 180.835 0H182.194C182.324 1.42395 182.874 2.50809 183.845 3.25243C184.816 3.99676 186.143 4.36893 187.825 4.36893C189.282 4.36893 190.544 3.94822 191.612 3.1068C192.712 2.26537 193.327 1.22977 193.456 0H194.864C194.799 1.58576 194.087 2.9288 192.728 4.02913C191.369 5.09709 189.751 5.63107 187.874 5.63107Z" fill="white"/>
<path d="M147.146 8.88354H148.748V23.1068H149.185C152.712 23.1068 155.415 24.0615 157.292 25.9709C159.201 27.8803 160.156 30.6149 160.156 34.1748C160.156 36.3755 159.687 38.3172 158.748 40C157.81 41.6829 156.467 42.9936 154.719 43.9321C153.004 44.8382 151.013 45.2913 148.748 45.2913H147.146V8.88354ZM164.573 8.88354H166.175V45.2913H164.573V8.88354ZM149.136 43.8835C152.017 43.8835 154.298 43.0098 155.981 41.2622C157.696 39.5146 158.554 37.1522 158.554 34.1748C158.554 31.1004 157.729 28.7217 156.078 27.0389C154.46 25.356 152.146 24.5146 149.136 24.5146H148.748V43.8835H149.136Z" fill="white"/>
<path d="M111.501 8.88354H113.103V30H138.055V8.88354H139.657V45.2913H138.055V31.4078H113.103V45.2913H111.501V8.88354Z" fill="white"/>
<path d="M68.6938 8.88354H70.2958V43.8835H85.49V8.88354H87.0434V43.8835H102.238V8.88354H103.839V45.2913H68.6938V8.88354Z" fill="white"/>
<path d="M64.8543 8.88354L46.6019 45.2913H44.8543L49.2233 36.5049L34.7087 8.88354H36.4563L50.1456 34.8544L63.1068 8.88354H64.8543Z" fill="white"/>
<path d="M0 43.8836H2.6699L20.1942 8.05835L37.7184 43.8836H40.0485V50.0001H38.5437V45.2914H1.40777V50.0001H0V43.8836ZM36.068 43.8836L20.0485 11.4079L4.17476 43.8836H36.068Z" fill="white"/>
</svg>
