<svg width="324" height="51" viewBox="0 0 324 51" fill="none" xmlns="http://www.w3.org/2000/svg">
<g clip-path="url(#clip0_5181_1718)">
<path d="M35.4126 14.8469C36.0797 14.6749 36.7792 14.5833 37.5 14.5833C42.1024 14.5833 45.8333 18.3143 45.8333 22.9167C45.8333 27.519 42.1024 31.25 37.5 31.25C36.7605 31.25 36.0436 31.1537 35.3609 30.9729M35.4126 14.8469C35.4153 14.7594 35.4167 14.6715 35.4167 14.5833C35.4167 9.98096 31.6857 6.25 27.0833 6.25C23.0883 6.25 19.7499 9.06123 18.9384 12.8134M35.4126 14.8469C35.3685 16.2659 34.9697 17.5955 34.3018 18.75M35.3609 30.9729C35.3977 30.7234 35.4167 30.4681 35.4167 30.2083C35.4167 27.6886 33.6273 25.5868 31.25 25.1042M35.3609 30.9729C34.9911 33.4869 32.8251 35.4167 30.2083 35.4167H29.1667C24.5643 35.4167 20.8333 39.1476 20.8333 43.75M18.9384 12.8134C18.2162 12.6092 17.4542 12.5 16.6667 12.5C12.0643 12.5 8.33334 16.231 8.33334 20.8333C8.33334 21.6429 8.44879 22.4256 8.66414 23.1657M18.9384 12.8134C21.0447 13.4088 22.8122 14.8118 23.8852 16.6667M8.66414 23.1657C6.06542 23.9234 4.16667 26.3233 4.16667 29.1667C4.16667 32.6184 6.96489 35.4167 10.4167 35.4167C13.138 35.4167 15.453 33.6775 16.311 31.25M8.66414 23.1657C8.85252 23.8132 9.11735 24.4281 9.44819 25" stroke="white" stroke-width="2.5" stroke-linecap="round" stroke-linejoin="round"/>
<path d="M24.6586 24.4655C23.5952 25.4903 21.7772 25.6671 20.2232 24.7934C18.6692 23.9196 17.8756 22.2744 18.1986 20.8333" stroke="white" stroke-width="2.5" stroke-linecap="round"/>
</g>
<path d="M82.2 25.56C84.04 25.96 85.4533 26.76 86.44 27.96C87.4533 29.1333 87.96 30.6533 87.96 32.52C87.96 34.92 87.0667 36.7733 85.28 38.08C83.52 39.36 80.9067 40 77.44 40H64.56V12H76.64C79.76 12 82.1733 12.6267 83.88 13.88C85.6133 15.1333 86.48 16.9067 86.48 19.2C86.48 20.7467 86.0933 22.0667 85.32 23.16C84.5733 24.2267 83.5333 25.0267 82.2 25.56ZM67.52 14.44V24.6H76.44C78.7067 24.6 80.4533 24.1733 81.68 23.32C82.9067 22.44 83.52 21.1733 83.52 19.52C83.52 17.8667 82.9067 16.6133 81.68 15.76C80.4533 14.88 78.7067 14.44 76.44 14.44H67.52ZM77.4 37.56C79.9067 37.56 81.8 37.1333 83.08 36.28C84.36 35.4267 85 34.0933 85 32.28C85 28.7867 82.4667 27.04 77.4 27.04H67.52V37.56H77.4ZM98.8363 23.08C99.5029 21.6667 100.49 20.6 101.796 19.88C103.13 19.16 104.77 18.8 106.716 18.8V21.56L106.036 21.52C103.823 21.52 102.09 22.2 100.836 23.56C99.5829 24.92 98.9563 26.8267 98.9563 29.28V40H96.1163V18.96H98.8363V23.08ZM132.863 18.96V40H130.143V35.84C129.29 37.2533 128.156 38.3333 126.743 39.08C125.356 39.8267 123.783 40.2 122.023 40.2C120.05 40.2 118.263 39.7467 116.663 38.84C115.063 37.9333 113.81 36.6667 112.903 35.04C111.996 33.4133 111.543 31.56 111.543 29.48C111.543 27.4 111.996 25.5467 112.903 23.92C113.81 22.2933 115.063 21.04 116.663 20.16C118.263 19.2533 120.05 18.8 122.023 18.8C123.73 18.8 125.263 19.16 126.623 19.88C128.01 20.5733 129.143 21.6 130.023 22.96V18.96H132.863ZM122.263 37.68C123.73 37.68 125.05 37.3467 126.223 36.68C127.423 35.9867 128.356 35.0133 129.023 33.76C129.716 32.5067 130.063 31.08 130.063 29.48C130.063 27.88 129.716 26.4533 129.023 25.2C128.356 23.9467 127.423 22.9867 126.223 22.32C125.05 21.6267 123.73 21.28 122.263 21.28C120.77 21.28 119.423 21.6267 118.223 22.32C117.05 22.9867 116.116 23.9467 115.423 25.2C114.756 26.4533 114.423 27.88 114.423 29.48C114.423 31.08 114.756 32.5067 115.423 33.76C116.116 35.0133 117.05 35.9867 118.223 36.68C119.423 37.3467 120.77 37.68 122.263 37.68ZM142.773 18.96H145.613V40H142.773V18.96ZM144.213 14.36C143.626 14.36 143.133 14.16 142.733 13.76C142.333 13.36 142.133 12.88 142.133 12.32C142.133 11.7867 142.333 11.32 142.733 10.92C143.133 10.52 143.626 10.32 144.213 10.32C144.799 10.32 145.293 10.52 145.693 10.92C146.093 11.2933 146.293 11.7467 146.293 12.28C146.293 12.8667 146.093 13.36 145.693 13.76C145.293 14.16 144.799 14.36 144.213 14.36ZM166.235 18.8C168.875 18.8 170.968 19.5733 172.515 21.12C174.088 22.64 174.875 24.8667 174.875 27.8V40H172.035V28.08C172.035 25.8933 171.488 24.2267 170.395 23.08C169.301 21.9333 167.741 21.36 165.715 21.36C163.448 21.36 161.648 22.04 160.315 23.4C159.008 24.7333 158.355 26.5867 158.355 28.96V40H155.515V18.96H158.235V22.84C159.008 21.56 160.075 20.5733 161.435 19.88C162.821 19.16 164.421 18.8 166.235 18.8Z" fill="white"/>
<path d="M197.81 42.135C194.78 42.135 192.035 41.445 189.575 40.065C187.115 38.685 185.18 36.795 183.77 34.395C182.36 31.965 181.655 29.25 181.655 26.25C181.655 23.25 182.36 20.55 183.77 18.15C185.18 15.72 187.115 13.815 189.575 12.435C192.035 11.055 194.78 10.365 197.81 10.365C200.84 10.365 203.585 11.055 206.045 12.435C208.505 13.815 210.44 15.72 211.85 18.15C213.26 20.55 213.965 23.25 213.965 26.25C213.965 29.25 213.26 31.965 211.85 34.395C210.44 36.795 208.505 38.685 206.045 40.065C203.585 41.445 200.84 42.135 197.81 42.135ZM197.81 41.28C200.66 41.28 203.24 40.635 205.55 39.345C207.89 38.025 209.72 36.225 211.04 33.945C212.39 31.635 213.065 29.07 213.065 26.25C213.065 23.43 212.39 20.88 211.04 18.6C209.72 16.29 207.89 14.49 205.55 13.2C203.24 11.88 200.66 11.22 197.81 11.22C194.96 11.22 192.365 11.88 190.025 13.2C187.715 14.49 185.885 16.29 184.535 18.6C183.215 20.88 182.555 23.43 182.555 26.25C182.555 29.07 183.215 31.635 184.535 33.945C185.885 36.225 187.715 38.025 190.025 39.345C192.365 40.635 194.96 41.28 197.81 41.28ZM237.047 42.135C234.767 42.135 232.622 41.73 230.612 40.92C228.602 40.08 227.057 39 225.977 37.68L226.607 37.095C227.627 38.295 229.082 39.3 230.972 40.11C232.862 40.89 234.872 41.28 237.002 41.28C240.272 41.28 242.732 40.635 244.382 39.345C246.062 38.025 246.902 36.33 246.902 34.26C246.902 32.64 246.467 31.35 245.597 30.39C244.727 29.43 243.647 28.71 242.357 28.23C241.097 27.75 239.387 27.255 237.227 26.745C234.917 26.175 233.087 25.635 231.737 25.125C230.387 24.585 229.232 23.775 228.272 22.695C227.342 21.585 226.877 20.115 226.877 18.285C226.877 16.845 227.252 15.525 228.002 14.325C228.752 13.125 229.922 12.165 231.512 11.445C233.102 10.725 235.067 10.365 237.407 10.365C239.087 10.365 240.737 10.635 242.357 11.175C243.977 11.685 245.372 12.375 246.542 13.245L246.047 13.965C244.817 13.065 243.437 12.39 241.907 11.94C240.407 11.46 238.922 11.22 237.452 11.22C234.302 11.22 231.902 11.895 230.252 13.245C228.602 14.565 227.777 16.26 227.777 18.33C227.777 19.95 228.212 21.255 229.082 22.245C229.952 23.205 231.032 23.925 232.322 24.405C233.612 24.885 235.352 25.395 237.542 25.935C239.822 26.505 241.637 27.06 242.987 27.6C244.337 28.11 245.477 28.905 246.407 29.985C247.337 31.035 247.802 32.46 247.802 34.26C247.802 35.7 247.412 37.02 246.632 38.22C245.852 39.42 244.652 40.38 243.032 41.1C241.442 41.79 239.447 42.135 237.047 42.135Z" fill="white"/>
<rect x="261" width="63" height="30" rx="10" fill="white"/>
<path d="M271.44 11.3C272.467 11.3 273.387 11.5267 274.2 11.98C275.013 12.4333 275.647 13.0667 276.1 13.88C276.567 14.6933 276.8 15.6333 276.8 16.7C276.8 17.7667 276.567 18.7133 276.1 19.54C275.647 20.3533 275.013 20.9867 274.2 21.44C273.387 21.8933 272.467 22.12 271.44 22.12C270.653 22.12 269.933 21.9667 269.28 21.66C268.627 21.3533 268.087 20.9067 267.66 20.32V22H265.82V7.16H267.74V13C268.167 12.44 268.7 12.02 269.34 11.74C269.98 11.4467 270.68 11.3 271.44 11.3ZM271.28 20.44C271.96 20.44 272.567 20.2867 273.1 19.98C273.647 19.66 274.073 19.22 274.38 18.66C274.7 18.0867 274.86 17.4333 274.86 16.7C274.86 15.9667 274.7 15.32 274.38 14.76C274.073 14.1867 273.647 13.7467 273.1 13.44C272.567 13.1333 271.96 12.98 271.28 12.98C270.613 12.98 270.007 13.1333 269.46 13.44C268.913 13.7467 268.487 14.1867 268.18 14.76C267.873 15.32 267.72 15.9667 267.72 16.7C267.72 17.4333 267.873 18.0867 268.18 18.66C268.487 19.22 268.913 19.66 269.46 19.98C270.007 20.2867 270.613 20.44 271.28 20.44ZM287.233 20.44C288.499 20.44 289.519 20.0133 290.293 19.16L291.333 20.4C290.866 20.96 290.273 21.3867 289.553 21.68C288.846 21.9733 288.053 22.12 287.173 22.12C286.053 22.12 285.059 21.8933 284.193 21.44C283.326 20.9733 282.653 20.3267 282.173 19.5C281.706 18.6733 281.473 17.74 281.473 16.7C281.473 15.6733 281.699 14.7467 282.153 13.92C282.619 13.0933 283.253 12.4533 284.053 12C284.866 11.5333 285.779 11.3 286.793 11.3C287.753 11.3 288.626 11.52 289.413 11.96C290.199 12.3867 290.826 12.9933 291.293 13.78C291.759 14.5667 291.999 15.4733 292.013 16.5L283.593 18.14C283.859 18.8733 284.306 19.44 284.933 19.84C285.573 20.24 286.339 20.44 287.233 20.44ZM286.793 12.92C286.126 12.92 285.526 13.0733 284.993 13.38C284.473 13.6867 284.066 14.12 283.773 14.68C283.479 15.2267 283.333 15.8667 283.333 16.6V16.8L290.113 15.52C289.939 14.7467 289.553 14.12 288.953 13.64C288.353 13.16 287.633 12.92 286.793 12.92ZM303.279 21.38C302.999 21.62 302.652 21.8067 302.239 21.94C301.826 22.06 301.399 22.12 300.959 22.12C299.892 22.12 299.066 21.8333 298.479 21.26C297.892 20.6867 297.599 19.8667 297.599 18.8V9.08H299.519V11.4H302.559V12.98H299.519V18.72C299.519 19.2933 299.659 19.7333 299.939 20.04C300.232 20.3467 300.646 20.5 301.179 20.5C301.766 20.5 302.266 20.3333 302.679 20L303.279 21.38ZM318.238 11.4V22H316.398V20.32C315.971 20.9067 315.431 21.3533 314.778 21.66C314.125 21.9667 313.405 22.12 312.618 22.12C311.591 22.12 310.671 21.8933 309.858 21.44C309.045 20.9867 308.405 20.3533 307.938 19.54C307.485 18.7133 307.258 17.7667 307.258 16.7C307.258 15.6333 307.485 14.6933 307.938 13.88C308.405 13.0667 309.045 12.4333 309.858 11.98C310.671 11.5267 311.591 11.3 312.618 11.3C313.378 11.3 314.078 11.4467 314.718 11.74C315.358 12.02 315.891 12.44 316.318 13V11.4H318.238ZM312.778 20.44C313.445 20.44 314.051 20.2867 314.598 19.98C315.145 19.66 315.571 19.22 315.878 18.66C316.185 18.0867 316.338 17.4333 316.338 16.7C316.338 15.9667 316.185 15.32 315.878 14.76C315.571 14.1867 315.145 13.7467 314.598 13.44C314.051 13.1333 313.445 12.98 312.778 12.98C312.098 12.98 311.485 13.1333 310.938 13.44C310.405 13.7467 309.978 14.1867 309.658 14.76C309.351 15.32 309.198 15.9667 309.198 16.7C309.198 17.4333 309.351 18.0867 309.658 18.66C309.978 19.22 310.405 19.66 310.938 19.98C311.485 20.2867 312.098 20.44 312.778 20.44Z" fill="#021024"/>
<defs>
<clipPath id="clip0_5181_1718">
<rect width="50" height="50" fill="white" transform="matrix(0 -1 -1 0 50 50)"/>
</clipPath>
</defs>
</svg>
